<?xml version="1.0" encoding="UTF-8"?>
<svg width="20px" height="20px" viewBox="0 0 20 20" version="1.1" xmlns="http://www.w3.org/2000/svg" xmlns:xlink="http://www.w3.org/1999/xlink">
    <!-- Generator: Sketch 61 (89581) - https://sketch.com -->
    <title>形状</title>
    <desc>Created with Sketch.</desc>
    <g id="页面-1" stroke="none" stroke-width="1" fill="none" fill-rule="evenodd">
        <path d="M10,0 C4.47714976,0 0,4.47714976 0,10 C0,15.5228502 4.47714976,20 10,20 C15.5228502,20 20,15.5228502 20,10 C20,4.47714976 15.5228502,0 10,0 Z M15.9878744,9.02548309 L13.3013285,11.6442029 L13.9355556,15.3418599 C13.9628103,15.5008248 13.89746,15.661479 13.7669789,15.7562806 C13.6364978,15.8510823 13.4635124,15.8635921 13.3207488,15.7885507 L10,14.0427295 L6.67927536,15.7885507 C6.53651463,15.8635987 6.36352726,15.851091 6.23304754,15.7562866 C6.10256782,15.6614823 6.03722485,15.5008231 6.06449275,15.3418599 L6.69869565,11.6442029 L4.01217391,9.02548309 C3.81557828,9.05398599 3.62557745,8.94206663 3.55519566,8.75630156 C3.48481387,8.57053649 3.5529527,8.3608144 3.71907897,8.25189093 C3.88520524,8.14296746 4.10470441,8.16409489 4.24700483,8.30270531 L7.95966184,7.76321256 L9.62002415,4.39896135 C9.69141515,4.25432324 9.83872674,4.162755 10.0000242,4.162755 C10.1613216,4.162755 10.3086332,4.25432324 10.3800242,4.39896135 L12.0403382,7.76321256 L15.7530435,8.30270531 C15.9126599,8.32590338 16.0452654,8.43770658 16.0951051,8.59110653 C16.1449448,8.74450649 16.1033752,8.9128993 15.9878744,9.02548309 L15.9878744,9.02548309 Z" id="形状" fill="#7EC282" fill-rule="nonzero"></path>
        <path d="M0,10 C0,15.5228502 4.47714976,20 10,20 C15.5228502,20 20,15.5228502 20,10 C20,4.47714976 15.5228502,0 10,0 C4.47714976,0 0,4.47714976 0,10 Z M3.90492754,8.59111111 C3.95476716,8.43771794 4.08736999,8.32592179 4.24698068,8.30272947 L7.95968599,7.76323671 L9.62,4.39898551 C9.69140396,4.25436321 9.83871103,4.16280957 10,4.16280957 C10.161289,4.16280957 10.308596,4.25436321 10.38,4.39898551 L12.0403623,7.76323671 L15.7530193,8.30272947 C15.9126357,8.32592753 16.0452412,8.43773074 16.0950809,8.59113069 C16.1449207,8.74453064 16.103351,8.91292345 15.9878502,9.02550725 L13.3013043,11.6442029 L13.9355072,15.3418599 C13.9628147,15.5008334 13.8974816,15.6615216 13.7669882,15.7563359 C13.6364948,15.8511502 13.463483,15.8636396 13.3207246,15.7885507 L10,14.0427295 L6.67927536,15.7885507 C6.53651845,15.8636277 6.36351265,15.8511162 6.23304348,15.7562802 C6.10256322,15.6614782 6.03721362,15.5008243 6.0644686,15.3418599 L6.69869565,11.6442029 L4.0121256,9.02548309 C3.89664331,8.91289011 3.85508748,8.74450377 3.90492754,8.59111111 L3.90492754,8.59111111 Z" id="形状" fill="#7EC282" fill-rule="nonzero"></path>
        <g id="画板" transform="translate(-40.000000, -3542.000000)"></g>
    </g>
</svg>